<svg width="512" height="512" viewBox="0 0 512 512" xmlns="http://www.w3.org/2000/svg">
  <defs>
    <linearGradient id="bg-gradient" x1="0%" y1="0%" x2="100%" y2="100%">
      <stop offset="0%" style="stop-color:#fdf2f8;stop-opacity:1" />
      <stop offset="50%" style="stop-color:#fce7f3;stop-opacity:1" />
      <stop offset="100%" style="stop-color:#f9a8d4;stop-opacity:1" />
    </linearGradient>
    <linearGradient id="paw-gradient" x1="0%" y1="0%" x2="100%" y2="100%">
      <stop offset="0%" style="stop-color:#ec4899;stop-opacity:1" />
      <stop offset="100%" style="stop-color:#be185d;stop-opacity:1" />
    </linearGradient>
    <filter id="glow">
      <feGaussianBlur stdDeviation="4" result="coloredBlur"/>
      <feMerge>
        <feMergeNode in="coloredBlur"/>
        <feMergeNode in="SourceGraphic"/>
      </feMerge>
    </filter>
  </defs>
  
  <!-- Background circle -->
  <circle cx="256" cy="256" r="240" fill="url(#bg-gradient)" stroke="#f9a8d4" stroke-width="4"/>
  
  <!-- Paw print -->
  <g transform="translate(256,256)" filter="url(#glow)">
    <!-- Main pad -->
    <ellipse cx="0" cy="20" rx="40" ry="50" fill="url(#paw-gradient)"/>
    
    <!-- Toe pads -->
    <ellipse cx="-35" cy="-25" rx="20" ry="25" fill="url(#paw-gradient)"/>
    <ellipse cx="-10" cy="-40" rx="18" ry="23" fill="url(#paw-gradient)"/>
    <ellipse cx="10" cy="-40" rx="18" ry="23" fill="url(#paw-gradient)"/>
    <ellipse cx="35" cy="-25" rx="20" ry="25" fill="url(#paw-gradient)"/>
  </g>
  
  <!-- Heart decoration -->
  <g transform="translate(380,130)">
    <path d="M12,21.35l-1.45-1.32C5.4,15.36,2,12.28,2,8.5 C2,5.42,4.42,3,7.5,3c1.74,0,3.41,0.81,4.5,2.09C13.09,3.81,14.76,3,16.5,3 C19.58,3,22,5.42,22,8.5c0,3.78-3.4,6.86-8.55,11.54L12,21.35z" 
          fill="#fda4af" opacity="0.8" transform="scale(0.8)"/>
  </g>
  
  <!-- Sparkle decorations -->
  <circle cx="150" cy="150" r="3" fill="#fda4af" opacity="0.7"/>
  <circle cx="400" cy="400" r="3" fill="#fda4af" opacity="0.7"/>
  <circle cx="100" cy="350" r="2" fill="#f9a8d4" opacity="0.8"/>
  <circle cx="420" cy="200" r="2" fill="#f9a8d4" opacity="0.8"/>
</svg>